<?xml version="1.0" encoding="UTF-8"?>
<!DOCTYPE svg PUBLIC "-//W3C//DTD SVG 1.1//EN" "http://www.w3.org/Graphics/SVG/1.1/DTD/svg11.dtd">
<svg xmlns="http://www.w3.org/2000/svg" version="1.1" width="2500px" height="2500px" style="shape-rendering:geometricPrecision; text-rendering:geometricPrecision; image-rendering:optimizeQuality; fill-rule:evenodd; clip-rule:evenodd" xmlns:xlink="http://www.w3.org/1999/xlink">
<g><path style="opacity:0.994" fill="#fefffe" d="M 2060.5,463.5 C 2085.09,624.849 2023.09,738.349 1874.5,804C 1802.7,831.59 1728.37,842.59 1651.5,837C 1622.4,835.457 1593.4,832.79 1564.5,829C 1490.75,817.183 1417.08,804.85 1343.5,792C 1279.47,781.586 1215.14,778.253 1150.5,782C 1077.39,786.368 1010.73,809.034 950.5,850C 925.542,868.623 904.375,890.79 887,916.5C 879.946,927.942 873.946,939.942 869,952.5C 881.798,883.454 904.465,816.787 937,752.5C 991.915,651.397 1076.75,592.897 1191.5,577C 1242.2,568.977 1293.2,566.311 1344.5,569C 1366.86,569.903 1389.19,571.237 1411.5,573C 1519.82,582.907 1628.15,592.574 1736.5,602C 1786.29,606.208 1835.95,605.208 1885.5,599C 1921.6,594.393 1955.94,584.06 1988.5,568C 2021.03,547.11 2044.19,518.61 2058,482.5C 2059.89,476.303 2060.72,469.97 2060.5,463.5 Z"/></g>
<g><path style="opacity:0.992" fill="#fefffe" d="M 1157.5,943.5 C 1209.71,943.254 1261.37,948.421 1312.5,959C 1372.37,971.974 1432.37,984.307 1492.5,996C 1534.2,1002.15 1575.86,1008.48 1617.5,1015C 1661.95,1021.99 1706.62,1023.99 1751.5,1021C 1795.78,1017.81 1835.11,1002.47 1869.5,975C 1873.5,971 1877.5,967 1881.5,963C 1882.33,962.312 1883,962.479 1883.5,963.5C 1869.3,1010.09 1842.3,1047.26 1802.5,1075C 1756.08,1105.59 1705.08,1123.92 1649.5,1130C 1587.24,1136.54 1524.91,1137.21 1462.5,1132C 1407.17,1127.9 1351.84,1123.9 1296.5,1120C 1238.07,1116.75 1180.74,1123.08 1124.5,1139C 1038.25,1166.59 978.415,1222.42 945,1306.5C 919.611,1377.04 910.277,1449.71 917,1524.5C 918.875,1551.25 921.541,1577.91 925,1604.5C 933.362,1660.03 940.695,1715.7 947,1771.5C 955.99,1843.02 951.657,1913.69 934,1983.5C 924.112,2018.93 909.112,2051.93 889,2082.5C 894.777,2014.12 891.777,1946.12 880,1878.5C 873.089,1840.52 864.755,1802.85 855,1765.5C 834.521,1693.4 814.854,1621.06 796,1548.5C 781.918,1493.01 773.585,1436.68 771,1379.5C 767.766,1315.04 775.766,1252.04 795,1190.5C 830.516,1088.99 897.683,1017.15 996.5,975C 1048.49,955.302 1102.15,944.802 1157.5,943.5 Z"/></g>
</svg>
