<?xml version="1.0" encoding="UTF-8"?>
<!DOCTYPE svg PUBLIC "-//W3C//DTD SVG 1.1//EN" "http://www.w3.org/Graphics/SVG/1.1/DTD/svg11.dtd">
<svg xmlns="http://www.w3.org/2000/svg" version="1.1" width="2447px" height="1785px" style="shape-rendering:geometricPrecision; text-rendering:geometricPrecision; image-rendering:optimizeQuality; fill-rule:evenodd; clip-rule:evenodd" xmlns:xlink="http://www.w3.org/1999/xlink">
<g><path style="opacity:0.994" fill="#fefffe" d="M 1302.5,15.5 C 1313.7,73.0637 1309.87,129.73 1291,185.5C 1270.25,239.239 1236.42,282.739 1189.5,316C 1120.31,361.95 1043.97,386.283 960.5,389C 906.897,390.844 853.564,387.844 800.5,380C 733.748,369.183 667.082,357.85 600.5,346C 548.002,337.278 495.168,332.445 442,331.5C 381.566,330.704 323.066,340.871 266.5,362C 216.823,381.561 174.99,411.728 141,452.5C 128.694,468.77 118.694,486.437 111,505.5C 124.615,434.988 147.615,367.654 180,303.5C 234.524,203.257 318.69,145.09 432.5,129C 484.878,120.939 537.545,118.272 590.5,121C 607.525,121.573 624.525,122.573 641.5,124C 739.869,132.614 838.202,141.614 936.5,151C 990.782,155.91 1045.11,156.91 1099.5,154C 1144.1,150.851 1186.76,140.184 1227.5,122C 1262.55,100.401 1287.05,70.2346 1301,31.5C 1302.19,26.2326 1302.69,20.8993 1302.5,15.5 Z"/></g>
<g><path style="opacity:0.992" fill="#fefffe" d="M 384.5,496.5 C 447.23,494.525 509.23,500.359 570.5,514C 621.061,525.179 671.727,535.845 722.5,546C 768.499,553 814.499,560 860.5,567C 903.953,573.945 947.62,575.945 991.5,573C 1033.99,569.843 1072.32,555.843 1106.5,531C 1112.47,526.033 1118.14,520.699 1123.5,515C 1124.33,514.312 1125,514.479 1125.5,515.5C 1111.68,560.795 1085.68,597.295 1047.5,625C 1002.23,655.874 952.227,674.541 897.5,681C 838.302,687.979 778.968,689.312 719.5,685C 659.17,680.611 598.837,676.278 538.5,672C 482.58,669.025 427.58,674.692 373.5,689C 288.38,713.795 227.88,766.629 192,847.5C 170.824,899.046 159.49,952.713 158,1008.5C 157.109,1054.37 159.776,1100.03 166,1145.5C 174.241,1203.76 181.908,1262.09 189,1320.5C 195.86,1377.65 194.86,1434.65 186,1491.5C 178.826,1535.69 164.493,1577.36 143,1616.5C 139,1622.5 135,1628.5 131,1634.5C 137.075,1563.73 133.741,1493.4 121,1423.5C 116.124,1397 110.457,1370.66 104,1344.5C 81.5327,1262.96 59.5327,1181.3 38,1099.5C 22.1567,1036.1 13.6567,971.766 12.5,906.5C 12.2754,846.906 21.7754,788.906 41,732.5C 80.876,628.291 153.376,557.458 258.5,520C 299.607,506.651 341.607,498.818 384.5,496.5 Z"/></g>
<g><path style="opacity:0.985" fill="#fefffe" d="M 520.5,803.5 C 586.167,803.5 651.833,803.5 717.5,803.5C 717.827,808.544 717.494,813.544 716.5,818.5C 701.62,823.879 691.12,833.879 685,848.5C 679.398,865.709 676.398,883.376 676,901.5C 675.333,1093.83 675.333,1286.17 676,1478.5C 680.379,1504.21 695.545,1518.05 721.5,1520C 765.513,1520.89 809.513,1520.55 853.5,1519C 884.585,1517.23 913.919,1509.23 941.5,1495C 967.098,1479.4 987.264,1458.57 1002,1432.5C 1006.93,1422.97 1012.1,1413.64 1017.5,1404.5C 1021.77,1405.54 1026.1,1406.21 1030.5,1406.5C 1027.92,1451.17 1025.25,1495.84 1022.5,1540.5C 855.167,1540.5 687.833,1540.5 520.5,1540.5C 520.172,1535.13 520.505,1529.79 521.5,1524.5C 538.696,1518.14 549.863,1506.14 555,1488.5C 559.371,1471.79 561.705,1454.79 562,1437.5C 562.667,1260.83 562.667,1084.17 562,907.5C 561.838,889.54 559.504,871.873 555,854.5C 549.836,836.838 538.669,824.838 521.5,818.5C 520.506,813.544 520.173,808.544 520.5,803.5 Z"/></g>
<g><path style="opacity:0.982" fill="#fefffe" d="M 1087.5,803.5 C 1153.17,803.5 1218.83,803.5 1284.5,803.5C 1284.83,808.544 1284.49,813.544 1283.5,818.5C 1268.62,823.879 1258.12,833.879 1252,848.5C 1246.4,865.709 1243.4,883.376 1243,901.5C 1242.33,1030.5 1242.33,1159.5 1243,1288.5C 1252.46,1457.65 1341.63,1535.48 1510.5,1522C 1569.9,1510.24 1614.4,1478.07 1644,1425.5C 1664.7,1386.39 1676.7,1344.72 1680,1300.5C 1681.02,1287.85 1681.69,1275.19 1682,1262.5C 1682.67,1174.17 1682.67,1085.83 1682,997.5C 1682.65,961.365 1678.99,925.699 1671,890.5C 1661.68,853.177 1638.68,828.844 1602,817.5C 1601.5,812.845 1601.33,808.179 1601.5,803.5C 1648.83,803.5 1696.17,803.5 1743.5,803.5C 1743.83,808.544 1743.49,813.544 1742.5,818.5C 1722.28,827.238 1710.45,842.571 1707,864.5C 1703.59,885.209 1701.76,906.042 1701.5,927C 1702.16,983.28 1702.49,1039.78 1702.5,1096.5C 1702.61,1160.51 1702.11,1224.51 1701,1288.5C 1699.02,1343.41 1684.69,1394.74 1658,1442.5C 1623.7,1496.1 1575.2,1529.6 1512.5,1543C 1438.25,1557.32 1365.58,1551.65 1294.5,1526C 1212.65,1492.83 1161.15,1433.33 1140,1347.5C 1135.48,1328.4 1132.48,1309.07 1131,1289.5C 1129.7,1161.84 1129.03,1034.18 1129,906.5C 1128.77,888.874 1126.44,871.541 1122,854.5C 1116.84,836.838 1105.67,824.838 1088.5,818.5C 1087.51,813.544 1087.17,808.544 1087.5,803.5 Z"/></g>
<g><path style="opacity:0.982" fill="#fefffe" d="M 1771.5,803.5 C 1837.17,803.5 1902.83,803.5 1968.5,803.5C 1968.83,808.544 1968.49,813.544 1967.5,818.5C 1950.67,824.09 1946.5,834.757 1955,850.5C 2005.83,935.499 2057.16,1020.17 2109,1104.5C 2154,1036.83 2199,969.167 2244,901.5C 2248.59,893.324 2252.92,884.991 2257,876.5C 2272.49,843.16 2261.99,823.826 2225.5,818.5C 2225.5,813.5 2225.5,808.5 2225.5,803.5C 2271.17,803.5 2316.83,803.5 2362.5,803.5C 2362.8,808.762 2362.47,813.928 2361.5,819C 2346.47,824.344 2332.81,832.011 2320.5,842C 2300.83,859.66 2283.33,879.16 2268,900.5C 2218.87,975.258 2169.37,1049.76 2119.5,1124C 2182.71,1228.25 2245.54,1332.75 2308,1437.5C 2321.76,1458.93 2337.43,1478.93 2355,1497.5C 2366.24,1508.24 2378.74,1517.24 2392.5,1524.5C 2393.49,1529.79 2393.83,1535.13 2393.5,1540.5C 2327.83,1540.5 2262.17,1540.5 2196.5,1540.5C 2196.17,1535.13 2196.51,1529.79 2197.5,1524.5C 2213.49,1519.06 2217.65,1508.72 2210,1493.5C 2151.67,1396.5 2093.33,1299.5 2035,1202.5C 1983.67,1279.17 1932.33,1355.83 1881,1432.5C 1869.71,1448.74 1861.38,1466.41 1856,1485.5C 1853.03,1501.4 1858.86,1512.56 1873.5,1519C 1879.87,1521.96 1886.54,1523.79 1893.5,1524.5C 1893.5,1529.83 1893.5,1535.17 1893.5,1540.5C 1847.83,1540.5 1802.17,1540.5 1756.5,1540.5C 1756.17,1535.13 1756.51,1529.79 1757.5,1524.5C 1774.15,1518.32 1789.15,1509.49 1802.5,1498C 1817.45,1484.39 1830.95,1469.56 1843,1453.5C 1903.54,1363.57 1963.71,1273.41 2023.5,1183C 1968.21,1091.6 1913.05,1000.1 1858,908.5C 1846.22,889.944 1833.22,872.278 1819,855.5C 1805.63,840.117 1789.96,827.784 1772,818.5C 1771.5,813.511 1771.33,808.511 1771.5,803.5 Z"/></g>
<g><path style="opacity:0.917" fill="#fefffe" d="M 966.5,1668.5 C 978.203,1668.09 988.869,1671.09 998.5,1677.5C 996.888,1681.75 994.554,1685.41 991.5,1688.5C 984.999,1685.39 978.166,1683.39 971,1682.5C 963.087,1682.68 958.253,1686.51 956.5,1694C 957.396,1698.13 959.729,1701.13 963.5,1703C 971.5,1706.67 979.5,1710.33 987.5,1714C 999.534,1724.65 1001.7,1737.15 994,1751.5C 989.534,1756.65 984.034,1760.15 977.5,1762C 963.638,1764.29 950.638,1761.96 938.5,1755C 937.643,1754.31 936.977,1753.48 936.5,1752.5C 938.412,1748.34 940.579,1744.34 943,1740.5C 952.894,1748.33 963.727,1750.5 975.5,1747C 984.822,1740.04 984.822,1733.04 975.5,1726C 967.5,1722.33 959.5,1718.67 951.5,1715C 939.446,1704.39 937.612,1692.22 946,1678.5C 951.745,1672.76 958.578,1669.43 966.5,1668.5 Z"/></g>
<g><path style="opacity:0.917" fill="#fefffe" d="M 1652.5,1668.5 C 1663.22,1668.18 1673.22,1670.68 1682.5,1676C 1683.02,1676.56 1683.36,1677.23 1683.5,1678C 1682.18,1682.16 1680.01,1685.66 1677,1688.5C 1670.52,1685.34 1663.69,1683.34 1656.5,1682.5C 1647.27,1682.89 1642.77,1687.56 1643,1696.5C 1644.12,1698.62 1645.62,1700.46 1647.5,1702C 1656.5,1706.33 1665.5,1710.67 1674.5,1715C 1684.81,1725.5 1686.64,1737.34 1680,1750.5C 1675.79,1756.69 1669.96,1760.53 1662.5,1762C 1647.55,1764.51 1633.88,1761.51 1621.5,1753C 1623.62,1748.58 1626.12,1744.42 1629,1740.5C 1640.17,1749.34 1652.01,1750.84 1664.5,1745C 1669.7,1736.6 1668.03,1729.93 1659.5,1725C 1651.23,1721.86 1643.23,1718.2 1635.5,1714C 1625.75,1704.25 1623.92,1693.08 1630,1680.5C 1635.98,1673.43 1643.48,1669.43 1652.5,1668.5 Z"/></g>
<g><path style="opacity:0.926" fill="#fefffe" d="M 2244.5,1668.5 C 2271.49,1666.69 2289.66,1678.36 2299,1703.5C 2303.65,1733.03 2291.82,1752.53 2263.5,1762C 2235.14,1765.91 2216.31,1754.41 2207,1727.5C 2202.86,1697.08 2215.36,1677.41 2244.5,1668.5 Z M 2247.5,1683.5 C 2265,1682.5 2276.83,1690.16 2283,1706.5C 2287.08,1726.52 2279.58,1740.02 2260.5,1747C 2237.48,1749.32 2224.48,1738.99 2221.5,1716C 2223.07,1699.29 2231.73,1688.45 2247.5,1683.5 Z"/></g>
<g><path style="opacity:0.918" fill="#fefffe" d="M 2383.5,1668.5 C 2394.22,1668.18 2404.22,1670.68 2413.5,1676C 2414.02,1676.56 2414.36,1677.23 2414.5,1678C 2413.1,1681.47 2411.43,1684.81 2409.5,1688C 2402.59,1685.6 2395.43,1683.76 2388,1682.5C 2380.07,1682.28 2375.24,1685.94 2373.5,1693.5C 2373.77,1697.16 2375.44,1699.99 2378.5,1702C 2387.53,1706.34 2396.53,1710.67 2405.5,1715C 2415.88,1724.89 2418.04,1736.39 2412,1749.5C 2407.65,1756.27 2401.48,1760.43 2393.5,1762C 2379.94,1764.36 2367.28,1762.03 2355.5,1755C 2354.43,1754.26 2353.76,1753.26 2353.5,1752C 2355.53,1748.1 2357.7,1744.27 2360,1740.5C 2369.89,1748.33 2380.73,1750.5 2392.5,1747C 2401.68,1740.13 2401.68,1733.13 2392.5,1726C 2383.12,1722.43 2374.12,1718.1 2365.5,1713C 2356.32,1702.73 2355.16,1691.57 2362,1679.5C 2367.85,1673.06 2375.01,1669.4 2383.5,1668.5 Z"/></g>
<g><path style="opacity:0.926" fill="#fefffe" d="M 501.5,1669.5 C 506.833,1669.5 512.167,1669.5 517.5,1669.5C 517.5,1695.17 517.5,1720.83 517.5,1746.5C 532.5,1746.5 547.5,1746.5 562.5,1746.5C 562.5,1751.5 562.5,1756.5 562.5,1761.5C 542.167,1761.5 521.833,1761.5 501.5,1761.5C 501.5,1730.83 501.5,1700.17 501.5,1669.5 Z"/></g>
<g><path style="opacity:0.918" fill="#fefffe" d="M 622.5,1669.5 C 627.833,1669.5 633.167,1669.5 638.5,1669.5C 638.5,1700.17 638.5,1730.83 638.5,1761.5C 633.167,1761.5 627.833,1761.5 622.5,1761.5C 622.5,1730.83 622.5,1700.17 622.5,1669.5 Z"/></g>
<g><path style="opacity:0.929" fill="#fefffe" d="M 703.5,1669.5 C 722.5,1669.5 741.5,1669.5 760.5,1669.5C 760.5,1674.5 760.5,1679.5 760.5,1684.5C 746.833,1684.5 733.167,1684.5 719.5,1684.5C 719.5,1692.83 719.5,1701.17 719.5,1709.5C 731.167,1709.5 742.833,1709.5 754.5,1709.5C 754.5,1714.5 754.5,1719.5 754.5,1724.5C 742.833,1724.5 731.167,1724.5 719.5,1724.5C 719.5,1736.83 719.5,1749.17 719.5,1761.5C 714.167,1761.5 708.833,1761.5 703.5,1761.5C 703.5,1730.83 703.5,1700.17 703.5,1669.5 Z"/></g>
<g><path style="opacity:0.934" fill="#fefffe" d="M 819.5,1669.5 C 840.167,1669.5 860.833,1669.5 881.5,1669.5C 881.5,1674.5 881.5,1679.5 881.5,1684.5C 866.167,1684.5 850.833,1684.5 835.5,1684.5C 835.5,1692.17 835.5,1699.83 835.5,1707.5C 849.167,1707.5 862.833,1707.5 876.5,1707.5C 876.5,1712.5 876.5,1717.5 876.5,1722.5C 862.833,1722.5 849.167,1722.5 835.5,1722.5C 835.5,1730.5 835.5,1738.5 835.5,1746.5C 851.167,1746.5 866.833,1746.5 882.5,1746.5C 882.5,1751.5 882.5,1756.5 882.5,1761.5C 861.5,1761.5 840.5,1761.5 819.5,1761.5C 819.5,1730.83 819.5,1700.17 819.5,1669.5 Z"/></g>
<g><path style="opacity:0.924" fill="#fefffe" d="M 1051.5,1669.5 C 1072.17,1669.5 1092.83,1669.5 1113.5,1669.5C 1113.5,1674.5 1113.5,1679.5 1113.5,1684.5C 1105.83,1684.5 1098.17,1684.5 1090.5,1684.5C 1090.5,1710.17 1090.5,1735.83 1090.5,1761.5C 1085.17,1761.5 1079.83,1761.5 1074.5,1761.5C 1074.5,1735.83 1074.5,1710.17 1074.5,1684.5C 1066.83,1684.5 1059.17,1684.5 1051.5,1684.5C 1051.5,1679.5 1051.5,1674.5 1051.5,1669.5 Z"/></g>
<g><path style="opacity:0.932" fill="#fefffe" d="M 1163.5,1669.5 C 1169.87,1669.17 1176.2,1669.5 1182.5,1670.5C 1190,1684.83 1197.5,1699.17 1205,1713.5C 1212.5,1699.17 1220,1684.83 1227.5,1670.5C 1233.83,1669.17 1240.17,1669.17 1246.5,1670.5C 1235.33,1690.83 1224.17,1711.17 1213,1731.5C 1212.5,1741.49 1212.33,1751.49 1212.5,1761.5C 1207.5,1761.5 1202.5,1761.5 1197.5,1761.5C 1197.67,1751.83 1197.5,1742.16 1197,1732.5C 1185.3,1711.76 1174.13,1690.76 1163.5,1669.5 Z"/></g>
<g><path style="opacity:0.926" fill="#fefffe" d="M 1302.5,1669.5 C 1307.83,1669.5 1313.17,1669.5 1318.5,1669.5C 1318.5,1695.17 1318.5,1720.83 1318.5,1746.5C 1333.5,1746.5 1348.5,1746.5 1363.5,1746.5C 1363.5,1751.5 1363.5,1756.5 1363.5,1761.5C 1343.17,1761.5 1322.83,1761.5 1302.5,1761.5C 1302.5,1730.83 1302.5,1700.17 1302.5,1669.5 Z"/></g>
<g><path style="opacity:0.934" fill="#fefffe" d="M 1423.5,1669.5 C 1444.17,1669.5 1464.83,1669.5 1485.5,1669.5C 1485.5,1674.5 1485.5,1679.5 1485.5,1684.5C 1470.17,1684.5 1454.83,1684.5 1439.5,1684.5C 1439.5,1692.17 1439.5,1699.83 1439.5,1707.5C 1453.17,1707.5 1466.83,1707.5 1480.5,1707.5C 1480.5,1712.5 1480.5,1717.5 1480.5,1722.5C 1466.83,1722.5 1453.17,1722.5 1439.5,1722.5C 1439.5,1730.5 1439.5,1738.5 1439.5,1746.5C 1455.17,1746.5 1470.83,1746.5 1486.5,1746.5C 1486.5,1751.5 1486.5,1756.5 1486.5,1761.5C 1465.5,1761.5 1444.5,1761.5 1423.5,1761.5C 1423.5,1730.83 1423.5,1700.17 1423.5,1669.5 Z"/></g>
<g><path style="opacity:0.958" fill="#fefffe" d="M 1737.5,1669.5 C 1758.17,1669.5 1778.83,1669.5 1799.5,1669.5C 1799.5,1674.5 1799.5,1679.5 1799.5,1684.5C 1791.5,1684.5 1783.5,1684.5 1775.5,1684.5C 1775.5,1710.17 1775.5,1735.83 1775.5,1761.5C 1770.5,1761.5 1765.5,1761.5 1760.5,1761.5C 1760.5,1735.83 1760.5,1710.17 1760.5,1684.5C 1752.83,1684.5 1745.17,1684.5 1737.5,1684.5C 1737.5,1679.5 1737.5,1674.5 1737.5,1669.5 Z"/></g>
<g><path style="opacity:0.932" fill="#fefffe" d="M 1856.5,1669.5 C 1861.83,1669.5 1867.17,1669.5 1872.5,1669.5C 1872.33,1690.5 1872.5,1711.5 1873,1732.5C 1879.74,1747.41 1890.57,1751.25 1905.5,1744C 1909.38,1741.07 1911.88,1737.24 1913,1732.5C 1913.5,1711.5 1913.67,1690.5 1913.5,1669.5C 1918.5,1669.5 1923.5,1669.5 1928.5,1669.5C 1928.67,1692.17 1928.5,1714.84 1928,1737.5C 1922.51,1754.31 1910.84,1762.64 1893,1762.5C 1871.56,1762.39 1859.56,1751.72 1857,1730.5C 1856.5,1710.17 1856.33,1689.84 1856.5,1669.5 Z"/></g>
<g><path style="opacity:0.928" fill="#fefffe" d="M 1992.5,1669.5 C 2004.84,1669.33 2017.17,1669.5 2029.5,1670C 2055.67,1674.64 2069.34,1690.3 2070.5,1717C 2069.13,1740.42 2057.13,1755.08 2034.5,1761C 2020.5,1761.5 2006.5,1761.67 1992.5,1761.5C 1992.5,1730.83 1992.5,1700.17 1992.5,1669.5 Z M 2008.5,1684.5 C 2015.51,1684.33 2022.51,1684.5 2029.5,1685C 2045.34,1689.18 2053.34,1699.51 2053.5,1716C 2053.78,1732.06 2046.11,1742.06 2030.5,1746C 2023.17,1746.5 2015.84,1746.67 2008.5,1746.5C 2008.5,1725.83 2008.5,1705.17 2008.5,1684.5 Z"/></g>
<g><path style="opacity:0.979" fill="#fefffe" d="M 2130.5,1669.5 C 2135.5,1669.5 2140.5,1669.5 2145.5,1669.5C 2145.5,1700.17 2145.5,1730.83 2145.5,1761.5C 2140.5,1761.5 2135.5,1761.5 2130.5,1761.5C 2130.5,1730.83 2130.5,1700.17 2130.5,1669.5 Z"/></g>
</svg>
